<?xml version="1.0" encoding="UTF-8" ?>
<!DOCTYPE svg PUBLIC "-//W3C//DTD SVG 1.1//EN" "http://www.w3.org/Graphics/SVG/1.1/DTD/svg11.dtd">
<svg width="383pt" height="399pt" viewBox="0 0 383 399" version="1.1" xmlns="http://www.w3.org/2000/svg">
<path fill="#ffffff" d=" M 0.00 0.00 L 383.00 0.00 L 383.00 399.00 L 0.00 399.00 L 0.00 0.00 Z" />
<path fill="#505252" d=" M 28.91 30.29 C 139.17 30.26 249.44 30.23 359.70 30.30 C 359.74 140.72 359.80 251.14 359.67 361.56 C 249.45 361.51 139.22 361.51 29.00 361.56 C 28.62 355.71 28.70 349.85 28.74 344.00 C 28.74 245.33 28.74 146.67 28.74 48.00 C 28.70 42.10 28.66 36.19 28.91 30.29 Z" />
<path fill="#ffffff" d=" M 33.05 34.67 C 40.36 34.39 47.68 34.56 55.00 34.53 C 135.67 34.53 216.33 34.53 297.00 34.53 C 316.44 34.63 335.89 34.34 355.33 34.67 C 355.65 119.11 355.38 203.56 355.47 288.00 C 355.37 311.05 355.67 334.11 355.32 357.16 C 267.22 357.40 179.11 357.19 91.00 357.26 C 71.69 357.19 52.37 357.42 33.06 357.16 C 32.95 249.66 32.97 142.17 33.05 34.67 Z" />
<path fill="#505252" d=" M 81.00 36.41 C 83.25 36.42 85.50 36.42 87.74 36.41 C 90.25 41.79 91.79 47.55 94.05 53.02 C 95.00 55.52 97.17 57.21 99.23 58.78 C 102.84 61.48 106.50 64.15 110.41 66.41 C 105.62 56.03 98.80 46.74 93.86 36.44 C 98.63 36.08 103.35 36.81 108.05 37.49 C 112.56 36.86 117.08 36.12 121.66 36.37 C 122.14 41.73 121.95 47.16 122.83 52.49 C 124.08 57.07 126.07 61.47 128.50 65.54 C 131.80 69.82 136.42 72.83 140.68 76.09 C 139.95 69.46 141.08 61.94 136.75 56.32 C 132.14 49.70 127.14 43.35 122.89 36.49 C 127.50 36.42 132.12 36.42 136.73 36.46 C 139.17 41.19 141.19 46.12 143.39 50.97 C 144.28 48.55 145.72 45.93 144.74 43.30 C 143.80 40.85 142.28 38.70 140.97 36.44 C 144.54 36.43 148.12 36.45 151.70 36.46 C 153.33 39.15 155.32 41.85 155.52 45.10 C 155.98 48.15 155.60 51.66 157.87 54.10 C 160.47 57.18 162.94 60.53 166.29 62.83 C 169.93 63.76 173.76 63.20 177.47 63.08 C 169.47 54.35 160.27 46.62 153.86 36.53 C 160.89 36.89 168.81 34.67 174.98 39.09 C 177.12 35.52 181.49 36.50 184.99 36.41 C 195.16 36.55 205.33 36.43 215.49 36.44 C 215.70 38.67 215.84 40.91 216.07 43.15 C 220.27 42.93 224.72 42.70 228.39 40.39 C 231.08 38.79 233.53 36.18 236.94 36.45 C 251.33 36.44 265.73 36.50 280.13 36.46 C 276.90 37.75 273.67 39.02 270.46 40.36 C 269.92 46.55 269.38 52.74 269.13 58.95 C 272.68 55.54 276.41 52.17 278.85 47.83 C 281.00 44.05 282.93 40.14 285.25 36.45 C 291.89 36.47 298.53 36.38 305.17 36.52 C 301.05 42.18 295.36 46.64 291.95 52.79 C 290.74 57.14 291.18 61.79 290.77 66.25 C 295.25 63.60 299.90 61.15 304.02 57.94 C 305.41 57.07 305.49 55.32 305.73 53.86 C 306.34 48.13 306.54 42.37 307.09 36.63 C 310.52 36.53 313.96 36.52 317.39 36.58 C 316.83 43.00 316.44 49.45 315.43 55.81 C 315.10 58.23 313.23 59.95 311.64 61.62 C 306.19 66.95 300.71 72.27 295.71 78.03 C 304.70 76.27 313.37 73.19 322.39 71.54 C 321.45 74.76 320.68 78.09 319.09 81.07 C 318.03 83.12 315.62 83.76 313.69 84.71 C 304.66 88.29 295.71 92.07 286.71 95.74 C 280.00 98.43 273.79 102.16 267.38 105.46 C 263.77 107.38 259.99 109.15 256.94 111.94 C 252.92 115.57 249.44 119.87 244.76 122.70 C 240.49 125.35 235.92 127.75 232.75 131.76 C 227.66 137.32 224.20 144.06 220.46 150.53 C 218.09 154.68 214.90 158.25 212.00 162.02 C 208.34 166.69 207.14 172.64 205.15 178.11 C 202.62 184.82 203.42 192.12 204.21 199.08 C 210.23 246.58 215.49 294.18 222.40 341.56 C 223.10 346.20 223.75 350.86 224.04 355.54 C 203.49 355.53 182.95 355.51 162.41 355.55 C 164.11 288.71 166.09 221.87 167.92 155.03 C 167.98 149.12 169.13 142.58 165.75 137.30 C 162.84 134.26 158.64 132.95 155.01 130.99 C 131.76 119.26 108.57 107.44 85.37 95.63 C 85.19 90.74 85.18 85.84 85.31 80.94 C 102.77 89.26 119.78 98.52 137.24 106.85 C 135.49 101.74 135.39 94.88 129.99 92.08 C 118.28 85.45 106.63 78.72 94.95 72.05 C 91.85 70.19 88.40 68.78 85.74 66.28 C 84.61 63.66 84.43 60.77 83.96 58.00 C 83.01 50.80 81.47 43.67 81.00 36.41 Z" />
<path fill="#ffffff" d=" M 197.32 43.19 C 199.75 41.93 202.22 40.71 204.71 39.55 C 204.86 43.60 204.81 47.67 204.10 51.68 C 201.13 49.50 198.58 46.71 197.32 43.19 Z" />
<path fill="#ffffff" d=" M 244.67 50.63 C 250.98 46.23 258.73 44.41 265.94 41.92 C 265.63 48.14 265.16 54.35 264.54 60.55 C 254.51 65.08 244.02 68.63 234.35 73.91 C 238.13 66.31 240.48 58.01 244.67 50.63 Z" />
<path fill="#ffffff" d=" M 217.15 60.09 C 224.32 58.08 231.52 56.14 238.35 53.15 C 235.85 60.38 232.03 67.12 230.17 74.58 C 229.61 78.05 225.77 79.08 223.22 80.79 C 221.05 73.94 219.08 67.02 217.15 60.09 Z" />
<path fill="#ffffff" d=" M 203.73 67.15 C 206.79 65.35 209.86 63.57 213.00 61.90 C 214.87 67.80 216.77 73.71 218.35 79.70 C 218.51 81.04 219.47 82.92 217.92 83.81 C 213.58 86.94 208.56 88.96 203.73 91.19 C 203.39 83.18 203.38 75.15 203.73 67.15 Z" />
<path fill="#ffffff" d=" M 144.12 64.19 C 150.27 68.93 156.29 73.83 162.51 78.48 C 164.92 80.36 167.69 82.23 168.66 85.30 C 170.80 91.48 172.60 97.79 174.22 104.13 C 166.21 98.10 158.81 91.30 150.94 85.09 C 149.04 83.40 146.69 81.94 145.61 79.56 C 144.47 74.53 144.55 69.31 144.12 64.19 Z" />
<path fill="#ffffff" d=" M 273.46 66.47 C 275.19 64.99 277.44 64.36 279.49 63.47 C 278.70 69.56 278.84 75.75 277.66 81.78 C 277.12 85.51 273.98 87.96 271.46 90.44 C 266.23 95.57 259.35 98.42 252.79 101.42 C 253.86 98.43 255.02 95.47 256.19 92.51 C 257.74 92.57 259.29 92.64 260.84 92.70 C 263.16 87.65 265.26 82.50 267.33 77.35 C 268.95 73.52 270.42 69.44 273.46 66.47 Z" />
<path fill="#ffffff" d=" M 170.44 67.71 C 174.02 67.53 177.62 67.52 181.20 67.62 C 181.30 71.65 181.30 75.68 181.04 79.71 C 177.04 76.15 173.49 72.10 170.44 67.71 Z" />
<path fill="#ffffff" d=" M 250.01 76.94 C 254.65 75.24 259.41 73.87 264.26 72.93 C 262.43 78.41 260.14 83.72 257.72 88.97 C 254.96 85.08 252.40 81.06 250.01 76.94 Z" />
<path fill="#ffffff" d=" M 242.20 81.33 C 243.36 80.54 244.54 79.76 245.73 79.01 C 244.20 84.62 244.68 90.72 242.02 96.02 C 237.94 105.02 232.44 113.32 226.54 121.22 C 226.38 112.23 226.50 103.25 226.45 94.26 C 231.35 92.46 236.33 90.87 241.32 89.32 C 241.69 86.67 241.82 83.98 242.20 81.33 Z" />
<path fill="#ffffff" d=" M 139.20 97.66 C 144.71 100.42 149.96 103.67 155.37 106.62 C 157.81 108.06 160.51 109.37 162.21 111.73 C 164.48 114.99 166.12 118.63 167.84 122.20 C 161.65 119.51 155.72 116.30 149.64 113.38 C 147.49 112.25 145.19 111.26 143.42 109.56 C 141.20 105.94 140.42 101.67 139.20 97.66 Z" />
<path fill="#ffffff" d=" M 215.37 105.47 C 217.34 102.62 219.45 99.86 221.99 97.49 C 222.51 106.35 222.16 115.23 222.41 124.10 C 222.64 127.66 220.25 130.53 218.33 133.28 C 213.24 140.09 208.56 147.20 203.40 153.96 C 203.52 143.95 203.50 133.94 203.40 123.93 C 203.51 121.51 203.19 118.79 204.76 116.74 C 207.70 112.44 212.40 109.74 215.37 105.47 Z" />
</svg>
